<?xml version="1.0" standalone="no"?><!DOCTYPE svg PUBLIC "-//W3C//DTD SVG 1.1//EN" "http://www.w3.org/Graphics/SVG/1.1/DTD/svg11.dtd"><svg t="1606960123878" class="icon" viewBox="0 0 1024 1024" version="1.1" xmlns="http://www.w3.org/2000/svg" p-id="7640" xmlns:xlink="http://www.w3.org/1999/xlink" width="200" height="200"><defs><style type="text/css"></style></defs><path d="M802.131593 68.272401H597.332821l30.719816-40.959754A17.032431 17.032431 0 1 0 600.763201 6.849836L554.666411 68.272401h-83.318967L441.924687 9.443954a17.066564 17.066564 0 0 0-30.532083 15.274575L433.186606 68.272401H221.868407c-28.228097 0-51.199693 22.971596-51.199692 51.199693v853.328213c0 28.228097 22.971596 51.199693 51.199692 51.199693h580.263186c28.228097 0 51.199693-22.971596 51.199692-51.199693V119.472094c0-28.228097-22.971596-51.199693-51.199692-51.199693zM221.868407 102.40553h228.384763l17.066565 34.133128A67.822526 67.822526 0 0 0 443.733743 187.738351c0 37.648841 30.617416 68.266257 68.266257 68.266257s68.266257-30.617416 68.266257-68.266257-30.617416-68.266257-68.266257-68.266257c-4.898104 0-9.659675 0.563197-14.267648 1.553057L488.414008 102.40553H802.131593a17.066564 17.066564 0 0 1 17.066564 17.066564v563.196621h-139.058366a72.549965 72.549965 0 0 0-37.717107-46.967185L580.266257 603.95772v-6.60476c27.784367-15.172176 47.325583-40.157626 58.231117-74.478487A50.790095 50.790095 0 0 0 665.599078 477.869943v-17.066564c0-15.803639-7.355689-30.463817-19.643615-40.089359-10.649536-64.511613-55.671133-97.21115-133.955463-97.21115-3.703444 0-7.321556 0.136533-10.854335 0.409597-14.728445 1.14346-36.334715-0.0512-55.022603-12.629257-6.980225-4.710372-12.253793-9.284211-15.615906-13.533786a20.309211 20.309211 0 0 0-23.927323-6.365828 20.258012 20.258012 0 0 0-12.526859 21.282005c0.716796 6.382895 1.791989 13.80685 3.413313 21.947602 3.293847 16.6399 3.293847 16.6399-1.331192 26.589707-1.74079 3.771711-3.891177 8.362616-6.417028 14.557779a190.582323 190.582323 0 0 0-11.963662 45.175196A50.909561 50.909561 0 0 0 358.400922 460.803379v17.066564c0 19.148685 10.564203 36.232316 27.101704 45.00453 10.905535 34.337927 30.446751 59.323377 58.231117 74.478487v6.417028l-64.323881 31.709676A72.874229 72.874229 0 0 0 343.450611 682.668715H204.801843V119.472094a17.066564 17.066564 0 0 1 17.066564-17.066564z m261.664564 66.576667l13.192454 26.384908a17.066564 17.066564 0 0 0 30.532083-15.257508l-13.141254-26.282509A34.064862 34.064862 0 0 1 546.133129 187.738351c0 18.82442-15.308708 34.133129-34.133129 34.133128s-34.133129-15.308708-34.133129-34.133128c0-6.929025 2.099187-13.36312 5.6661-18.756154zM460.970973 633.329277c10.274072-5.01757 16.895899-15.650039 16.895898-27.101704v-30.771015l-10.308204-4.437307c-25.889978-11.161533-42.71761-32.443539-51.455692-65.091876l-2.440518-9.096479-8.977013-2.798916A17.18603 17.18603 0 0 1 392.53405 477.869943v-17.066564c0-6.178096 3.532779-11.912462 9.233011-14.95031l8.004219-4.266641 0.938661-9.028213a160.255038 160.255038 0 0 1 10.615403-43.86107c2.269853-5.546633 4.198375-9.693809 5.768499-13.090055 5.785565-12.424459 7.884753-18.841487 6.434094-31.999808 20.07028 11.468731 44.185335 16.315635 70.348378 14.352981a97.450082 97.450082 0 0 1 8.140752-0.324265c63.897217 0 95.094896 23.142261 101.187659 75.05875l1.058127 8.908746 7.935952 4.198375c5.700232 3.037848 9.267144 8.789281 9.267145 15.00151v17.066564c0 7.30449-5.000503 13.943383-12.151394 16.162037l-8.977013 2.798916-2.440518 9.096479c-8.738081 32.648337-25.565713 53.930343-51.455692 65.091876l-10.308204 4.454373v30.907548c0 11.417531 6.314629 21.70867 16.452167 26.879839l64.426281 32.921403c7.355689 3.686378 13.175388 9.506076 16.895898 16.503367H379.307463c3.396246-7.15089 8.908747-13.141254 15.820705-16.878832l65.842805-32.477672zM802.131593 989.866871H221.868407a17.066564 17.066564 0 0 1-17.066564-17.066564V716.801843h614.396314v255.998464a17.066564 17.066564 0 0 1-17.066564 17.066564z" fill="" p-id="7641"></path><path d="M665.599078 836.267793H358.400922a17.066564 17.066564 0 1 0 0 34.133129h307.198156a17.066564 17.066564 0 1 0 0-34.133129zM426.667179 802.134665h170.665642a17.066564 17.066564 0 1 0 0-34.133129H426.667179a17.066564 17.066564 0 1 0 0 34.133129zM375.467486 904.53405h-17.066564a17.066564 17.066564 0 1 0 0 34.133129h17.066564a17.066564 17.066564 0 1 0 0-34.133129zM477.866871 904.53405h-34.133128a17.066564 17.066564 0 1 0 0 34.133129h34.133128a17.066564 17.066564 0 1 0 0-34.133129zM563.199693 904.53405h-17.066564a17.066564 17.066564 0 1 0 0 34.133129h17.066564a17.066564 17.066564 0 1 0 0-34.133129zM665.599078 904.53405h-34.133128a17.066564 17.066564 0 1 0 0 34.133129h34.133128a17.066564 17.066564 0 1 0 0-34.133129z" fill="" p-id="7642"></path></svg>