<?xml version="1.0" standalone="no"?><!DOCTYPE svg PUBLIC "-//W3C//DTD SVG 1.1//EN" "http://www.w3.org/Graphics/SVG/1.1/DTD/svg11.dtd"><svg t="1606960484445" class="icon" viewBox="0 0 1024 1024" version="1.1" xmlns="http://www.w3.org/2000/svg" p-id="7771" xmlns:xlink="http://www.w3.org/1999/xlink" width="200" height="200"><defs><style type="text/css"></style></defs><path d="M480 160c-35.008 0-64 28.992-64 64v32H128v576h768V256h-288V224c0-35.008-28.992-64-64-64z m0 64h64v64h-64z m-288 96h224v32h192v-32h224v448H192z m320 64c-70.4 0-128 57.6-128 128a127.36 127.36 0 0 0 38.88 91.36A160.064 160.064 0 0 0 352 736h64c0-53.376 42.624-96 96-96s96 42.624 96 96h64a160.064 160.064 0 0 0-70.88-132.64A127.36 127.36 0 0 0 640 512c0-70.4-57.6-128-128-128z m0 64c35.744 0 64 28.256 64 64s-28.256 64-64 64-64-28.256-64-64 28.256-64 64-64z" p-id="7772" fill="#9d9ea0"></path></svg>