<?xml version="1.0" standalone="no"?><!DOCTYPE svg PUBLIC "-//W3C//DTD SVG 1.1//EN" "http://www.w3.org/Graphics/SVG/1.1/DTD/svg11.dtd"><svg t="1606959906183" class="icon" viewBox="0 0 1024 1024" version="1.1" xmlns="http://www.w3.org/2000/svg" p-id="5511" xmlns:xlink="http://www.w3.org/1999/xlink" width="200" height="200"><defs><style type="text/css"></style></defs><path d="M832 96H192c-52.935 0-96 43.065-96 96v640c0 52.935 43.065 96 96 96h640c52.935 0 96-43.065 96-96V192c0-52.935-43.065-96-96-96z m-640 64h640c17.645 0 32 14.355 32 32v160H160V192c0-17.645 14.355-32 32-32z m-32 672V416h192v448H192c-17.645 0-32-14.355-32-32z m672 32H416V416h448v416c0 17.645-14.355 32-32 32z" p-id="5512" fill="#6a778b"></path></svg>